# xmcd
#
# Track frame offsets: 
#        150
#        15707
#        24190
#        32605
#        44267
#        56332
#        68280
#        78887
#        91242
#        100792
#        112537
#        123172
#        133860
#        144490
#        156557
#        168025
#
# Disc length: 2409 seconds
#
# Revision: 0
# Processed by: cddbd v1.4PL0 Copyright (c) Steve Scherf et al.
# Submitted via: ExactAudioCopy v0.90b4
#
DISCID=b2096710
DTITLE=Emerson and Waldron - Best Of Emerson and Waldron
DYEAR=1997
DGENRE=Bluegrass
TTITLE0=Early Morning Rain
TTITLE1=I'm Bound To Ride
TTITLE2=There's No Room In My Heart For The Blues
TTITLE3=Fox On The Run
TTITLE4=Spanish Grass
TTITLE5=A Lonesome Night
TTITLE6=Deep River
TTITLE7=If I Were A Carpenter
TTITLE8=Shiloh
TTITLE9=Little Maggie
TTITLE10=Our Darling's Gone
TTITLE11=Wheels
TTITLE12=Proud Mary
TTITLE13=I Know You're Married
TTITLE14=You Didn't Say Goodbye
TTITLE15=Who Will Sing For Me
EXTD=
EXTT0=
EXTT1=
EXTT2=
EXTT3=
EXTT4=
EXTT5=
EXTT6=
EXTT7=
EXTT8=
EXTT9=
EXTT10=
EXTT11=
EXTT12=
EXTT13=
EXTT14=
EXTT15=
PLAYORDER=
